<svg xmlns="http://www.w3.org/2000/svg" width="200.198" height="200.198" viewBox="0 0 200.198 200.198">
  <g id="Group_653" data-name="Group 653" transform="translate(-1261.851 -3234.852)">
    <path id="Path_1934" data-name="Path 1934" d="M160.6,177.158q-18.387-1.811-26.8,14.637t-22.907,4.983Q96.4,185.314,80.422,194.6t-21.965-8.192q-5.991-17.478-24.449-18.3T19.96,149.337q4.409-17.943-10.673-28.615T7.615,97.339Q21.024,84.629,14.107,67.5T25.342,46.921q18.152-3.443,21.6-21.6T67.512,14.091Q84.644,21.009,97.355,7.6t23.383,1.672q10.672,15.082,28.615,10.673T168.12,33.993q.825,18.458,18.3,24.449t8.192,21.965q-9.285,15.973,2.179,30.463t-4.983,22.907q-16.447,8.418-14.637,26.8T160.6,177.158Z" transform="translate(1260.547 3233.563)" fill="#d59b57" fill-rule="evenodd"/>
    <path id="Path_1935" data-name="Path 1935" d="M146.887,162.021q-16.8-1.655-24.5,13.377t-20.936,4.554q-13.242-10.477-27.841-1.991t-20.074-7.487Q48.063,154.5,31.194,153.747t-12.84-17.152q4.029-16.4-9.754-26.152T7.072,89.072Q19.327,77.456,13,61.8t10.268-18.8q16.59-3.147,19.737-19.737t18.8-10.268q15.658,6.322,27.274-5.933t21.371,1.528q9.754,13.784,26.152,9.754t17.151,12.839q.754,16.869,16.727,22.345T177.977,73.6q-8.486,14.6,1.991,27.841t-4.554,20.935q-15.032,7.693-13.377,24.5T146.887,162.021Z" transform="translate(1269.162 3242.179)" fill="none" stroke="#efce98" stroke-width="1" fill-rule="evenodd"/>
  </g>
</svg>
