<svg xmlns="http://www.w3.org/2000/svg" width="17.518" height="25.012" viewBox="0 0 17.518 25.012">
  <g id="placeholder" transform="translate(-8.203)">
    <path id="Path_1" data-name="Path 1" d="M23.754,12a3.2,3.2,0,1,0,3.2,3.2A3.2,3.2,0,0,0,23.754,12Zm0,5.481A2.284,2.284,0,1,1,26.038,15.2,2.286,2.286,0,0,1,23.754,17.481Z" transform="translate(-6.711 -6.519)" fill="#ffd176"/>
    <path id="Path_2" data-name="Path 2" d="M23.156,2.566a8.759,8.759,0,0,0-12.388,0,9.977,9.977,0,0,0-.824,12.311l7.018,10.135L23.97,14.891A9.981,9.981,0,0,0,23.156,2.566Zm.073,11.791-6.267,9.05-6.277-9.064a9.015,9.015,0,0,1,.729-11.131,7.846,7.846,0,0,1,11.1,0A9.018,9.018,0,0,1,23.229,14.357Z" transform="translate(0 0)" fill="#ffd176"/>
  </g>
</svg>
