<svg xmlns="http://www.w3.org/2000/svg" width="96.435" height="96.436" viewBox="0 0 96.435 96.436">
  <g id="correct" transform="translate(-0.008)">
    <path id="Path_1936" data-name="Path 1936" d="M96.146,47.3,88.9,37.314l1.283-12.27a1.556,1.556,0,0,0-.915-1.583L78,18.444,72.983,7.171A1.565,1.565,0,0,0,71.4,6.255L59.128,7.538,49.138.3a1.555,1.555,0,0,0-1.826,0L37.321,7.538,25.05,6.255a1.576,1.576,0,0,0-1.583.914L18.45,18.443,7.177,23.46a1.554,1.554,0,0,0-.914,1.582L7.545,37.314.3,47.3a1.555,1.555,0,0,0,0,1.826l7.241,9.99L6.263,71.392a1.555,1.555,0,0,0,.914,1.583L18.45,77.992l5.016,11.273a1.572,1.572,0,0,0,1.583.916L37.321,88.9l9.991,7.242a1.555,1.555,0,0,0,1.826,0l9.99-7.242L71.4,90.181a1.564,1.564,0,0,0,1.583-.914L78,77.993l11.273-5.018a1.557,1.557,0,0,0,.915-1.582L88.9,59.121l7.242-9.99A1.555,1.555,0,0,0,96.146,47.3ZM86.036,57.776a1.552,1.552,0,0,0-.288,1.075l1.226,11.74-10.787,4.8a1.543,1.543,0,0,0-.791.788L70.6,86.968,58.856,85.74a1.552,1.552,0,0,0-1.073.289l-9.558,6.928L38.666,86.03a1.538,1.538,0,0,0-.911-.3,1.014,1.014,0,0,0-.156.008L25.855,86.968l-4.8-10.787a1.554,1.554,0,0,0-.79-.791l-10.793-4.8L10.7,58.851a1.559,1.559,0,0,0-.288-1.075L3.485,48.217l6.928-9.559a1.559,1.559,0,0,0,.288-1.075L9.474,25.843l10.787-4.8a1.542,1.542,0,0,0,.79-.788l4.8-10.787,11.743,1.227a1.569,1.569,0,0,0,1.073-.289l9.559-6.928L57.784,10.4a1.563,1.563,0,0,0,1.073.289L70.6,9.467l4.8,10.787a1.554,1.554,0,0,0,.791.79l10.787,4.8L85.75,37.583a1.552,1.552,0,0,0,.288,1.075l6.927,9.559Zm0,0" fill="#b5b3b3"/>
    <path id="Path_1937" data-name="Path 1937" d="M166.319,155.421a1.555,1.555,0,0,0-2.2,0l-25.294,25.294-7.7-7.69a1.555,1.555,0,0,0-2.2,0l-4.409,4.383a1.555,1.555,0,0,0,0,2.2l13.205,13.205a1.556,1.556,0,0,0,2.2,0l30.8-30.8a1.556,1.556,0,0,0,0-2.2Zm-27.494,34.1-11-11,2.2-2.194,7.707,7.691a1.556,1.556,0,0,0,2.2,0l25.294-25.292,2.2,2.2Zm0,0" transform="translate(-99.933 -124.836)" fill="#e7b76b"/>
  </g>
</svg>
