<svg xmlns="http://www.w3.org/2000/svg" width="97.146" height="96.753" viewBox="0 0 97.146 96.753">
  <g id="outline" transform="translate(-15.715 -17.718)">
    <path id="Path_1946" data-name="Path 1946" d="M31.929,59.548a1.614,1.614,0,0,0-1.384.783L25.7,68.4a1.614,1.614,0,0,0-.23.83v4.308a22.39,22.39,0,1,0,25.819,0V69.23a1.614,1.614,0,0,0-.23-.83l-4.841-8.068a1.614,1.614,0,0,0-1.384-.783H40V57.934a4.841,4.841,0,1,0,0-9.682H36.77a4.849,4.849,0,0,0-4.639,3.46V51.48H30.517V49.866A4.849,4.849,0,0,0,27.289,45.3V43.008A.807.807,0,0,1,28.1,42.2H29.18a4.849,4.849,0,0,0,4.563,3.227h3.227A4.849,4.849,0,0,0,41.535,42.2H43.7a4.849,4.849,0,0,0,4.563,3.227h3.227A4.849,4.849,0,0,0,56.058,42.2h1.891V46.84a1.614,1.614,0,0,0,.783,1.384L66.8,53.065a1.614,1.614,0,0,0,.83.23h4.308A22.382,22.382,0,0,0,112.563,41.83c0-.008,0-.016,0-.024.029-.47.046-.943.046-1.42A22.383,22.383,0,0,0,71.939,27.476H67.631a1.614,1.614,0,0,0-.83.23l-8.068,4.841a1.614,1.614,0,0,0-.783,1.384v5.043H56.058a4.849,4.849,0,0,0-4.563-3.227H48.267A4.849,4.849,0,0,0,43.7,38.974H41.535a4.849,4.849,0,0,0-4.563-3.227H33.744a4.849,4.849,0,0,0-4.563,3.227H28.1a4.039,4.039,0,0,0-4.034,4.034V45.3a4.849,4.849,0,0,0-3.227,4.563v3.227a4.841,4.841,0,0,0,9.4,1.614H32.13v-.233a4.849,4.849,0,0,0,4.639,3.46v1.614ZM90.222,21.224a19.184,19.184,0,0,1,19.162,19.162c0,.086,0,.17,0,.256a8.36,8.36,0,0,1-4.546.167c0-.141.011-.281.011-.422a14.619,14.619,0,1,0-.456,3.629,11.47,11.47,0,0,0,4.639.046A19.162,19.162,0,1,1,90.222,21.224Zm11.4,19.162a11.4,11.4,0,1,1-11.4-11.4,11.4,11.4,0,0,1,11.4,11.4ZM61.176,34.845l6.9-4.141h1.958a22.371,22.371,0,0,0,0,19.364H68.078l-6.9-4.141ZM48.267,38.974h3.227a1.614,1.614,0,0,1,0,3.227H48.267a1.614,1.614,0,0,1,0-3.227Zm-14.523,0h3.227a1.614,1.614,0,0,1,0,3.227H33.744a1.614,1.614,0,0,1,0-3.227Zm-6.455,14.12a1.614,1.614,0,0,1-3.227,0V49.866a1.614,1.614,0,0,1,3.227,0ZM57.545,91.821A19.182,19.182,0,0,1,38.638,110.98a8.467,8.467,0,0,1-.018-4.541,14.6,14.6,0,1,0-3.247-.307,11.736,11.736,0,0,0-.1,4.6,19.162,19.162,0,1,1,22.271-18.91Zm-30.559,0a11.4,11.4,0,1,1,11.4,11.4,11.4,11.4,0,0,1-11.4-11.4Zm8.169-38.728A1.615,1.615,0,0,1,36.77,51.48H40a1.614,1.614,0,1,1,0,3.227H36.77A1.615,1.615,0,0,1,35.156,53.093Zm8.768,9.682,4.141,6.9v1.958a22.371,22.371,0,0,0-19.364,0V69.677l4.141-6.9Z" transform="translate(0)" fill="#b5b3b3" stroke="#351617" stroke-width="0.5"/>
    <circle id="Ellipse_34" data-name="Ellipse 34" cx="2.5" cy="2.5" r="2.5" transform="translate(35.992 63.995)" fill="#e7b76b"/>
    <ellipse id="Ellipse_35" data-name="Ellipse 35" cx="2" cy="2.5" rx="2" ry="2.5" transform="translate(62.992 37.995)" fill="#e7b76b"/>
    <g id="Ellipse_36" data-name="Ellipse 36" transform="translate(75.692 25.995)" fill="none" stroke="#e7b76b" stroke-width="4">
      <circle cx="14.5" cy="14.5" r="14.5" stroke="none"/>
      <circle cx="14.5" cy="14.5" r="12.5" fill="none"/>
    </g>
    <g id="Ellipse_37" data-name="Ellipse 37" transform="translate(23.692 76.995)" fill="none" stroke="#e7b76b" stroke-width="4">
      <circle cx="14.5" cy="14.5" r="14.5" stroke="none"/>
      <circle cx="14.5" cy="14.5" r="12.5" fill="none"/>
    </g>
  </g>
</svg>
