<svg xmlns="http://www.w3.org/2000/svg" width="99.197" height="76.699" viewBox="0 0 99.197 76.699">
  <g id="Group_708" data-name="Group 708" transform="translate(0.5 0.5)">
    <path id="Path_1951" data-name="Path 1951" d="M98.561,19.183a1.637,1.637,0,0,0-1.637,1.637V79.738H88.037A139.219,139.219,0,0,0,56.757,83.3a3.26,3.26,0,0,1-3.449-1.362A37.2,37.2,0,0,1,72.72,76.465H92.014a1.637,1.637,0,0,0,1.637-1.637V63.372a1.637,1.637,0,1,0-3.273,0v9.82H72.72a40.47,40.47,0,0,0-19.985,5.257V33.913a1.637,1.637,0,0,0-3.273,0V78.447a40.464,40.464,0,0,0-19.985-5.255H11.82V14.273h25.2A12.446,12.446,0,0,1,49.462,26.72a1.637,1.637,0,0,0,3.273,0A12.446,12.446,0,0,1,65.174,14.273h25.2V56.825a1.637,1.637,0,1,0,3.273,0V12.637A1.637,1.637,0,0,0,92.014,11H65.174A15.733,15.733,0,0,0,51.1,19.726,15.733,15.733,0,0,0,37.024,11H10.183a1.637,1.637,0,0,0-1.637,1.637V74.828a1.637,1.637,0,0,0,1.637,1.637H29.477a37.2,37.2,0,0,1,19.408,5.469,3.273,3.273,0,0,1-3.43,1.369,139.226,139.226,0,0,0-31.3-3.565H5.273V20.82A1.637,1.637,0,1,0,2,20.82V81.375a1.637,1.637,0,0,0,1.637,1.637H14.16A135.985,135.985,0,0,1,44.7,86.488a6.514,6.514,0,0,0,6.4-2.07,6.511,6.511,0,0,0,6.383,2.075,136.077,136.077,0,0,1,30.556-3.481H98.561a1.637,1.637,0,0,0,1.637-1.637V20.82A1.637,1.637,0,0,0,98.561,19.183Z" transform="translate(-2 -11)" fill="#b5b3b3" stroke="#3d1a18" stroke-width="1"/>
    <path id="Path_1952" data-name="Path 1952" d="M40.006,20.64A15.677,15.677,0,0,0,31.294,18H12.637a1.637,1.637,0,1,0,0,3.273H31.294a12.4,12.4,0,0,1,6.9,2.09,1.637,1.637,0,0,0,1.817-2.723Z" transform="translate(3.73 -6.544)" fill="#e7b76b" stroke="#3d1a18" stroke-width="1"/>
    <path id="Path_1953" data-name="Path 1953" d="M62.933,18H44.275a15.68,15.68,0,0,0-8.72,2.64,1.637,1.637,0,1,0,1.817,2.723,12.407,12.407,0,0,1,6.9-2.09H62.933a1.637,1.637,0,0,0,0-3.273Z" transform="translate(18.898 -6.544)" fill="#e7b76b" stroke="#3d1a18" stroke-width="1"/>
    <path id="Path_1954" data-name="Path 1954" d="M40.006,25.64A15.677,15.677,0,0,0,31.294,23H12.637a1.637,1.637,0,1,0,0,3.273H31.294a12.4,12.4,0,0,1,6.9,2.09,1.637,1.637,0,1,0,1.817-2.723Z" transform="translate(3.73 -3.361)" fill="#e7b76b" stroke="#3d1a18" stroke-width="1"/>
    <path id="Path_1955" data-name="Path 1955" d="M62.933,23H44.275a15.68,15.68,0,0,0-8.72,2.64,1.637,1.637,0,1,0,1.817,2.723,12.407,12.407,0,0,1,6.9-2.09H62.933a1.637,1.637,0,1,0,0-3.273Z" transform="translate(18.898 -3.361)" fill="#e7b76b" stroke="#3d1a18" stroke-width="1"/>
    <path id="Path_1956" data-name="Path 1956" d="M40.006,30.64A15.677,15.677,0,0,0,31.294,28H12.637a1.637,1.637,0,0,0,0,3.273H31.294a12.4,12.4,0,0,1,6.9,2.09,1.637,1.637,0,0,0,1.817-2.723Z" transform="translate(3.73 -0.177)" fill="#e7b76b" stroke="#3d1a18" stroke-width="1"/>
    <path id="Path_1957" data-name="Path 1957" d="M62.933,28H44.275a15.68,15.68,0,0,0-8.72,2.64,1.637,1.637,0,1,0,1.817,2.723,12.407,12.407,0,0,1,6.9-2.09H62.933a1.637,1.637,0,0,0,0-3.273Z" transform="translate(18.898 -0.177)" fill="#e7b76b" stroke="#3d1a18" stroke-width="1"/>
    <path id="Path_1958" data-name="Path 1958" d="M40.006,35.64A15.677,15.677,0,0,0,31.294,33H12.637a1.637,1.637,0,0,0,0,3.273H31.294a12.4,12.4,0,0,1,6.9,2.09,1.637,1.637,0,0,0,1.817-2.723Z" transform="translate(3.73 3.006)" fill="#e7b76b" stroke="#3d1a18" stroke-width="1"/>
    <path id="Path_1959" data-name="Path 1959" d="M62.933,33H44.275a15.68,15.68,0,0,0-8.72,2.64,1.637,1.637,0,1,0,1.817,2.723,12.407,12.407,0,0,1,6.9-2.09H62.933a1.637,1.637,0,0,0,0-3.273Z" transform="translate(18.898 3.006)" fill="#e7b76b" stroke="#3d1a18" stroke-width="1"/>
    <path id="Path_1960" data-name="Path 1960" d="M40.006,40.64A15.677,15.677,0,0,0,31.294,38H12.637a1.637,1.637,0,1,0,0,3.273H31.294a12.4,12.4,0,0,1,6.9,2.09,1.637,1.637,0,0,0,1.817-2.723Z" transform="translate(3.73 6.189)" fill="#e7b76b" stroke="#3d1a18" stroke-width="1"/>
    <path id="Path_1961" data-name="Path 1961" d="M62.933,38H44.275a15.68,15.68,0,0,0-8.72,2.64,1.637,1.637,0,1,0,1.817,2.723,12.407,12.407,0,0,1,6.9-2.09H62.933a1.637,1.637,0,0,0,0-3.273Z" transform="translate(18.898 6.189)" fill="#e7b76b" stroke="#3d1a18" stroke-width="1"/>
    <path id="Path_1962" data-name="Path 1962" d="M31.294,43H12.637a1.637,1.637,0,1,0,0,3.273H31.294a12.4,12.4,0,0,1,6.9,2.09,1.637,1.637,0,1,0,1.817-2.723A15.677,15.677,0,0,0,31.294,43Z" transform="translate(3.73 9.372)" fill="#e7b76b" stroke="#3d1a18" stroke-width="1"/>
    <path id="Path_1963" data-name="Path 1963" d="M62.933,43H44.275a15.68,15.68,0,0,0-8.72,2.64,1.637,1.637,0,0,0,1.817,2.723,12.407,12.407,0,0,1,6.9-2.09H62.933a1.637,1.637,0,0,0,0-3.273Z" transform="translate(18.898 9.372)" fill="#e7b76b" stroke="#3d1a18" stroke-width="1"/>
  </g>
</svg>
