<svg xmlns="http://www.w3.org/2000/svg" width="108.103" height="97.226" viewBox="0 0 108.103 97.226">
  <g id="chat" transform="translate(0.5 0.5)">
    <path id="Path_1938" data-name="Path 1938" d="M248.092,100a2.092,2.092,0,1,0,2.092,2.092A2.093,2.093,0,0,0,248.092,100Zm0,0" transform="translate(-194.54 -79.081)" fill="#e7b76b"/>
    <path id="Path_1939" data-name="Path 1939" d="M82.092,264.184A2.092,2.092,0,1,0,80,262.092,2.093,2.093,0,0,0,82.092,264.184Zm0,0" transform="translate(-63.265 -205.612)" fill="#e7b76b"/>
    <path id="Path_1940" data-name="Path 1940" d="M70.287,0C51.454,0,36,12.984,34.8,29.339,16.866,30.239,0,43.172,0,60.664A29.231,29.231,0,0,0,8.158,80.669,12.722,12.722,0,0,1,4.8,92.655a2.092,2.092,0,0,0,1.479,3.571,23.075,23.075,0,0,0,15.987-6.462,47.67,47.67,0,0,0,14.554,2.278c18.83,0,34.285-12.981,35.484-29.333a47.039,47.039,0,0,0,12.54-2.232,23.075,23.075,0,0,0,15.987,6.462,2.092,2.092,0,0,0,1.479-3.571,12.722,12.722,0,0,1-3.362-11.986A29.231,29.231,0,0,0,107.1,31.378C107.1,13.2,88.938,0,70.287,0ZM36.817,87.858A42.288,42.288,0,0,1,22.485,85.39a2.092,2.092,0,0,0-2.317.531,18.875,18.875,0,0,1-9.388,5.571,16.917,16.917,0,0,0,1.276-12.451,2.088,2.088,0,0,0-.512-.884,25.138,25.138,0,0,1-7.36-17.493c0-14.741,14.944-27.194,32.633-27.194,16.7,0,31.378,11.616,31.378,27.194C68.195,75.659,54.119,87.858,36.817,87.858ZM95.56,48.871a2.1,2.1,0,0,0-.512.884,16.917,16.917,0,0,0,1.276,12.451,18.869,18.869,0,0,1-9.388-5.571,2.093,2.093,0,0,0-2.317-.531A41.208,41.208,0,0,1,72.294,58.52a29.943,29.943,0,0,0-11.3-20.866H88.277a2.092,2.092,0,0,0,0-4.184H54.564A39.014,39.014,0,0,0,39,29.347C40.2,15.3,53.773,4.184,70.287,4.184c17.689,0,32.633,12.453,32.633,27.194A25.138,25.138,0,0,1,95.56,48.871Zm0,0" fill="#b5b3b3" stroke="#301516" stroke-width="1"/>
    <path id="Path_1941" data-name="Path 1941" d="M148.449,260H122.092a2.092,2.092,0,1,0,0,4.184h26.357a2.092,2.092,0,1,0,0-4.184Zm0,0" transform="translate(-94.898 -205.612)" fill="#e7b76b"/>
    <path id="Path_1942" data-name="Path 1942" d="M116.817,320H82.092a2.092,2.092,0,0,0,0,4.184h34.725a2.092,2.092,0,1,0,0-4.184Zm0,0" transform="translate(-63.265 -253.06)" fill="#e7b76b"/>
    <path id="Path_1943" data-name="Path 1943" d="M314.449,100H288.092a2.092,2.092,0,0,0,0,4.184h26.357a2.092,2.092,0,0,0,0-4.184Zm0,0" transform="translate(-226.173 -79.081)" fill="#e7b76b"/>
    <path id="Subtraction_19" data-name="Subtraction 19" d="M20661.854-8260.684h-26.713a28.047,28.047,0,0,0-3.812-2.806c-.746-.448-1.605-.91-2.557-1.371.1-.007.174-.009.244-.009h32.838a2.392,2.392,0,0,1,2.6,2.09A2.394,2.394,0,0,1,20661.854-8260.684Z" transform="translate(-20574.09 8298.369)" fill="#e7b76b"/>
  </g>
</svg>
