<?xml version="1.0" encoding="utf-8"?><svg xmlns="http://www.w3.org/2000/svg" xmlns:xlink="http://www.w3.org/1999/xlink"><symbol viewBox="0 0 17.518 25.012" id="marker" xmlns="http://www.w3.org/2000/svg"><path data-name="Path 1" d="M8.84 5.481a3.2 3.2 0 1 0 3.2 3.2 3.2 3.2 0 0 0-3.2-3.2zm0 5.481a2.284 2.284 0 1 1 2.284-2.281 2.286 2.286 0 0 1-2.284 2.281z"/><path data-name="Path 2" d="M14.953 2.566a8.759 8.759 0 0 0-12.388 0 9.977 9.977 0 0 0-.824 12.311l7.018 10.135 7.008-10.121a9.981 9.981 0 0 0-.814-12.325zm.073 11.791l-6.267 9.05-6.277-9.064a9.015 9.015 0 0 1 .729-11.131 7.846 7.846 0 0 1 11.1 0 9.018 9.018 0 0 1 .715 11.145z"/></symbol><symbol viewBox="0 0 24.002 24" id="phone" xmlns="http://www.w3.org/2000/svg"><g data-name="Group 18"><path data-name="Path 3" d="M23.372 18.515l-4.858-3.24a1.418 1.418 0 0 0-1.9.308l-1.414 1.82a.6.6 0 0 1-.776.163l-.269-.148a16.268 16.268 0 0 1-4.24-3.33 16.334 16.334 0 0 1-3.33-4.24l-.147-.266a.606.606 0 0 1 .16-.778l1.818-1.422a1.419 1.419 0 0 0 .309-1.9L5.486.63a1.411 1.411 0 0 0-1.9-.428l-2.033 1.22a2.866 2.866 0 0 0-1.307 1.7c-.732 2.66-.181 7.26 6.595 14.038 5.39 5.39 9.4 6.839 12.161 6.839a7.086 7.086 0 0 0 1.88-.246 2.863 2.863 0 0 0 1.7-1.307l1.222-2.03a1.411 1.411 0 0 0-.432-1.901zm-.262 1.492l-1.219 2.031a2.067 2.067 0 0 1-1.22.946c-2.461.676-6.759.116-13.265-6.39S.342 5.79 1.018 3.329a2.07 2.07 0 0 1 .947-1.222L4 .889a.612.612 0 0 1 .825.186l1.76 2.642 1.473 2.215a.616.616 0 0 1-.134.824L6.106 8.171a1.4 1.4 0 0 0-.371 1.8l.144.262a16.968 16.968 0 0 0 3.467 4.424 16.985 16.985 0 0 0 4.423 3.467l.263.145a1.4 1.4 0 0 0 1.8-.371l1.415-1.819a.616.616 0 0 1 .824-.134l4.858 3.24a.612.612 0 0 1 .182.822z"/><path data-name="Path 4" d="M13.6 4.002a6.807 6.807 0 0 1 6.8 6.8.4.4 0 1 0 .8 0 7.608 7.608 0 0 0-7.6-7.6.4.4 0 1 0 0 .8z"/><path data-name="Path 5" d="M13.6 6.401a4.4 4.4 0 0 1 4.4 4.4.4.4 0 1 0 .8 0 5.206 5.206 0 0 0-5.2-5.2.4.4 0 1 0 0 .8z"/><path data-name="Path 6" d="M13.6 8.801a2 2 0 0 1 2 2 .4.4 0 0 0 .8 0 2.8 2.8 0 0 0-2.8-2.8.4.4 0 1 0 0 .8z"/></g></symbol></svg>